<?xml version="1.0" standalone="no"?>
<!DOCTYPE svg PUBLIC "-//W3C//DTD SVG 20010904//EN"
 "http://www.w3.org/TR/2001/REC-SVG-20010904/DTD/svg10.dtd">
<svg version="1.0" xmlns="http://www.w3.org/2000/svg"
 width="300.000000pt" height="300.000000pt" viewBox="0 0 300.000000 300.000000"
 preserveAspectRatio="xMidYMid meet">
<metadata>
Created by potrace 1.10, written by Peter Selinger 2001-2011
</metadata>
<g transform="translate(0.000000,300.000000) scale(0.100000,-0.100000)"
fill="#000000" stroke="none">
<path d="M1613 2588 c-18 -21 -94 -130 -133 -193 -87 -139 -130 -214 -130
-227 0 -26 48 -58 73 -49 13 4 63 68 122 157 55 82 107 150 115 151 15 3 90
-95 90 -116 0 -6 4 -11 8 -11 4 0 16 -15 27 -32 20 -36 147 -232 201 -313 19
-28 34 -58 34 -67 0 -15 -38 -93 -60 -123 -4 -5 -25 -44 -47 -85 -22 -41 -68
-126 -102 -188 -65 -120 -72 -149 -43 -175 51 -47 75 -16 282 371 19 36 40 68
47 70 18 5 303 -432 303 -465 0 -16 -12 -48 -26 -73 -15 -25 -43 -76 -64 -115
-21 -38 -54 -99 -74 -135 -63 -111 -106 -199 -106 -213 0 -20 33 -47 58 -47
12 0 33 15 48 34 26 32 41 58 124 211 87 161 112 205 120 210 5 3 17 -7 27
-22 10 -15 20 -30 23 -33 9 -8 155 -232 170 -260 7 -14 16 -27 20 -30 3 -3 17
-23 30 -45 13 -22 26 -42 29 -45 4 -3 11 -14 17 -25 6 -11 26 -28 45 -38 34
-17 34 -17 57 9 28 32 24 46 -33 134 -74 114 -112 174 -131 208 -10 17 -22 32
-26 32 -4 0 -8 5 -8 10 0 6 -31 57 -68 113 -74 109 -173 262 -262 403 -30 48
-86 135 -125 194 -38 58 -74 114 -80 123 -5 9 -44 69 -85 132 -41 64 -80 123
-85 133 -6 9 -41 64 -79 122 -38 58 -102 156 -143 218 -69 105 -75 112 -106
112 -22 0 -40 -8 -54 -22z m152 -139 c49 -78 94 -147 101 -153 6 -7 21 -30 32
-52 11 -22 28 -46 36 -53 9 -8 16 -17 16 -22 0 -5 16 -32 35 -59 19 -27 35
-54 35 -60 0 -5 4 -10 9 -10 5 0 14 -13 21 -30 7 -16 16 -30 21 -30 5 0 9 -6
9 -13 0 -8 9 -25 21 -38 11 -13 27 -36 34 -50 13 -24 43 -70 151 -233 21 -33
45 -71 53 -85 8 -14 17 -28 21 -31 4 -3 51 -75 105 -160 54 -85 134 -208 177
-274 43 -65 78 -121 78 -123 0 -3 15 -26 34 -52 18 -25 35 -50 37 -56 2 -5 26
-42 53 -82 47 -70 54 -103 23 -103 -8 0 -50 55 -94 123 -45 67 -116 176 -159
241 -44 65 -90 139 -103 163 -13 24 -27 41 -30 38 -6 -6 -70 -123 -129 -235
-16 -30 -50 -93 -77 -140 -26 -47 -54 -97 -62 -112 -16 -31 -40 -37 -50 -12
-6 17 0 30 52 119 20 33 43 76 53 95 9 19 19 37 22 40 5 5 16 25 88 160 22 41
48 89 58 106 l17 31 -59 89 c-32 49 -61 94 -64 99 -3 6 -45 71 -94 145 -50 74
-99 152 -109 173 -11 20 -23 37 -28 37 -4 0 -17 -19 -28 -42 -11 -24 -33 -65
-49 -93 -40 -72 -89 -160 -130 -235 -19 -36 -44 -78 -56 -95 -11 -16 -19 -32
-16 -35 3 -3 -3 -6 -14 -8 -39 -8 -37 15 8 98 25 45 46 86 46 91 0 5 4 9 8 9
5 0 16 17 25 38 9 20 34 69 56 107 22 39 48 86 57 105 10 19 28 52 42 73 l23
39 -25 33 c-14 19 -26 38 -26 44 0 6 -4 11 -10 11 -5 0 -10 5 -10 12 0 6 -11
26 -25 44 -14 18 -25 37 -25 43 0 6 -4 11 -10 11 -5 0 -10 5 -10 11 0 6 -6 16
-12 23 -7 8 -67 97 -133 199 -66 102 -123 186 -126 187 -3 0 -12 -12 -20 -27
-13 -25 -133 -212 -179 -278 -12 -16 -27 -39 -34 -49 -20 -29 -50 -14 -41 21
4 16 10 30 14 33 4 3 16 21 27 40 10 19 22 37 25 40 3 3 33 48 67 100 101 157
133 200 146 200 7 0 53 -64 101 -141z"/>
<path d="M1155 2091 c-111 -33 -188 -148 -200 -301 -12 -157 -55 -302 -114
-389 -42 -61 -136 -153 -249 -245 -51 -41 -82 -59 -110 -63 -37 -5 -40 -3 -51
27 -25 72 -17 94 62 173 79 78 134 172 144 243 4 30 0 45 -18 68 -20 25 -27
28 -66 23 -51 -5 -111 -44 -160 -103 l-34 -40 -62 61 c-90 87 -151 101 -201
46 -42 -46 4 -169 105 -285 54 -61 60 -73 55 -100 -29 -149 -10 -327 45 -422
71 -125 210 -194 392 -194 53 0 58 -2 52 -20 -3 -11 1 -30 10 -44 30 -46 107
-60 216 -41 87 15 160 49 209 98 48 48 52 55 78 110 12 26 26 47 30 47 25 0
44 162 21 176 -18 11 -27 -8 -44 -91 -43 -210 -168 -313 -380 -314 -65 -1
-108 15 -113 41 -2 12 6 19 25 24 51 12 117 52 154 91 80 86 159 341 108 351
-19 3 -35 -36 -69 -168 -19 -71 -74 -151 -131 -190 l-52 -35 -121 0 c-119 1
-124 2 -196 37 -131 62 -180 127 -206 274 -16 88 -14 148 5 274 8 46 6 57 -8
67 -48 37 -121 120 -126 145 -4 15 -10 28 -14 28 -12 0 -33 83 -29 111 2 20 9
24 44 27 35 3 48 -3 85 -34 24 -20 52 -50 63 -68 10 -17 22 -33 26 -36 4 -3
12 -18 18 -35 6 -16 11 -24 11 -16 2 27 74 126 115 158 46 36 84 48 116 38 19
-6 22 -12 17 -46 -12 -89 -90 -206 -175 -262 l-42 -27 0 -81 c0 -72 3 -82 25
-104 53 -54 106 -29 304 146 118 104 184 192 213 284 36 114 48 170 57 281 11
133 44 199 126 252 36 23 49 26 140 26 91 0 105 -3 155 -29 46 -25 66 -29 125
-29 39 1 87 4 107 8 54 10 68 -10 68 -92 -1 -144 -59 -253 -170 -321 -17 -10
-46 -39 -66 -64 l-37 -47 8 -123 c10 -157 11 -329 2 -390 -10 -72 -62 -165
-120 -215 -16 -14 -24 -29 -20 -35 7 -12 9 -17 12 -36 3 -21 70 -73 120 -93
43 -16 77 -21 146 -21 131 1 166 8 197 43 43 47 15 95 -61 106 -59 8 -111 41
-189 123 l-63 65 10 66 c15 92 15 206 1 342 -17 164 -9 184 106 273 101 78
148 172 157 312 4 65 -8 105 -40 128 -12 9 -48 11 -124 7 -85 -4 -113 -2 -131
10 -47 31 -125 49 -199 47 -41 -1 -83 -5 -94 -8z m417 -1329 c63 -48 89 -60
146 -68 59 -8 73 -27 42 -58 -19 -19 -33 -21 -148 -21 -143 0 -181 9 -235 58
l-37 32 44 42 c24 23 54 63 67 88 l23 45 28 -42 c15 -24 47 -58 70 -76z"/>
<path d="M1613 1923 c-24 -9 -8 -63 19 -63 13 0 28 38 22 54 -6 16 -18 19 -41
9z"/>
<path d="M1352 1904 c-38 -26 -25 -94 19 -94 17 0 59 44 59 61 0 11 -37 49
-48 49 -4 0 -18 -7 -30 -16z"/>
<path d="M1530 1802 c0 -5 -14 -23 -31 -40 -19 -19 -29 -38 -25 -47 6 -16 26
-21 26 -6 0 5 14 22 30 38 32 30 40 63 15 63 -8 0 -15 -4 -15 -8z"/>
<path d="M1567 1744 c-40 -51 -45 -64 -23 -64 14 0 81 76 81 93 0 26 -25 13
-58 -29z"/>
</g>
</svg>
